<svg width="87" height="87" viewBox="0 0 87 87" fill="none" xmlns="http://www.w3.org/2000/svg">
<path d="M61.6249 48.6112L46.0737 33.2412C45.7367 32.9015 45.3357 32.6318 44.894 32.4478C44.4523 32.2637 43.9784 32.169 43.4999 32.169C43.0214 32.169 42.5476 32.2637 42.1058 32.4478C41.6641 32.6318 41.2631 32.9015 40.9262 33.2412L25.5562 48.6112C25.2164 48.9482 24.9467 49.3492 24.7627 49.7909C24.5786 50.2326 24.4839 50.7065 24.4839 51.185C24.4839 51.6635 24.5786 52.1373 24.7627 52.5791C24.9467 53.0208 25.2164 53.4218 25.5562 53.7587C26.2353 54.4339 27.1541 54.8129 28.1118 54.8129C29.0695 54.8129 29.9882 54.4339 30.6674 53.7587L43.4999 40.9262L56.3324 53.7587C57.0076 54.4284 57.9189 54.806 58.8699 54.81C59.347 54.8128 59.8199 54.7213 60.2616 54.5409C60.7032 54.3605 61.1049 54.0947 61.4437 53.7587C61.7956 53.4339 62.0796 53.0425 62.2793 52.6072C62.4791 52.172 62.5906 51.7014 62.6075 51.2228C62.6243 50.7442 62.5462 50.2669 62.3775 49.8187C62.2089 49.3704 61.9531 48.9601 61.6249 48.6112Z" fill="#4F46E5"/>
</svg>
