<svg width="25" height="25" viewBox="0 0 25 25" fill="none" xmlns="http://www.w3.org/2000/svg">
<path d="M21.7709 2.08325H3.22921C2.92531 2.08325 2.63387 2.20397 2.41898 2.41886C2.2041 2.63374 2.08337 2.92519 2.08337 3.22909V21.7708C2.08337 21.9212 2.11301 22.0702 2.1706 22.2092C2.22818 22.3483 2.31258 22.4746 2.41898 22.581C2.52538 22.6874 2.6517 22.7718 2.79072 22.8294C2.92974 22.8869 3.07873 22.9166 3.22921 22.9166H13.2084V14.8437H10.5V11.7187H13.2084V9.37492C13.1523 8.82467 13.2172 8.2688 13.3987 7.74631C13.5802 7.22382 13.8738 6.74736 14.2589 6.35035C14.644 5.95333 15.1113 5.64538 15.628 5.44808C16.1447 5.25079 16.6983 5.16893 17.25 5.20825C18.0608 5.20326 18.8712 5.245 19.6771 5.33325V8.14575H18.0209C16.7084 8.14575 16.4584 8.77075 16.4584 9.677V11.6874H19.5834L19.1771 14.8124H16.4584V22.9166H21.7709C21.9213 22.9166 22.0703 22.8869 22.2094 22.8294C22.3484 22.7718 22.4747 22.6874 22.5811 22.581C22.6875 22.4746 22.7719 22.3483 22.8295 22.2092C22.8871 22.0702 22.9167 21.9212 22.9167 21.7708V3.22909C22.9167 3.07861 22.8871 2.92961 22.8295 2.79059C22.7719 2.65158 22.6875 2.52526 22.5811 2.41886C22.4747 2.31246 22.3484 2.22806 22.2094 2.17047C22.0703 2.11289 21.9213 2.08325 21.7709 2.08325Z" fill="#4F46E5"/>
</svg>
