<svg width="25" height="25" viewBox="0 0 25 25" fill="none" xmlns="http://www.w3.org/2000/svg">
<path d="M12.5 7.29159C11.4699 7.29159 10.463 7.59705 9.60645 8.16935C8.74994 8.74165 8.08238 9.55508 7.68817 10.5068C7.29396 11.4585 7.19082 12.5057 7.39178 13.516C7.59275 14.5263 8.08879 15.4544 8.81719 16.1828C9.54559 16.9112 10.4736 17.4072 11.4839 17.6082C12.4943 17.8091 13.5415 17.706 14.4932 17.3118C15.4449 16.9176 16.2583 16.25 16.8306 15.3935C17.4029 14.537 17.7084 13.53 17.7084 12.4999C17.7084 11.1186 17.1596 9.79382 16.1829 8.81707C15.2061 7.84032 13.8814 7.29159 12.5 7.29159ZM12.5 15.6249C11.882 15.6249 11.2778 15.4416 10.7639 15.0983C10.25 14.7549 9.84944 14.2668 9.61292 13.6958C9.37639 13.1248 9.31451 12.4965 9.43509 11.8903C9.55567 11.2841 9.85329 10.7272 10.2903 10.2902C10.7274 9.85317 11.2842 9.55554 11.8904 9.43497C12.4966 9.31439 13.1249 9.37627 13.6959 9.6128C14.2669 9.84932 14.755 10.2499 15.0984 10.7638C15.4418 11.2777 15.625 11.8819 15.625 12.4999C15.625 13.3287 15.2958 14.1236 14.7098 14.7096C14.1237 15.2957 13.3288 15.6249 12.5 15.6249ZM17.7084 6.24992C17.5024 6.24992 17.301 6.31101 17.1297 6.42547C16.9584 6.53993 16.8248 6.70262 16.746 6.89296C16.6672 7.0833 16.6465 7.29274 16.6867 7.4948C16.7269 7.69687 16.8261 7.88248 16.9718 8.02816C17.1175 8.17383 17.3031 8.27304 17.5052 8.31324C17.7072 8.35343 17.9167 8.3328 18.107 8.25396C18.2973 8.17512 18.46 8.04161 18.5745 7.8703C18.6889 7.699 18.75 7.49761 18.75 7.29159C18.75 7.01532 18.6403 6.75037 18.4449 6.55502C18.2496 6.35967 17.9846 6.24992 17.7084 6.24992ZM22.8542 8.58325C22.837 7.69307 22.6679 6.81236 22.3542 5.97909C22.0634 5.22082 21.6163 4.5322 21.042 3.95794C20.4678 3.38367 19.7791 2.9366 19.0209 2.64575C18.1876 2.33211 17.3069 2.16301 16.4167 2.14575C15.4063 2.08325 15.073 2.08325 12.5 2.08325C9.92712 2.08325 9.59379 2.08325 8.58337 2.14575C7.69319 2.16301 6.81248 2.33211 5.97921 2.64575C5.22094 2.9366 4.53232 3.38367 3.95806 3.95794C3.3838 4.5322 2.93672 5.22082 2.64587 5.97909C2.33223 6.81236 2.16313 7.69307 2.14587 8.58325C2.08337 9.60409 2.08337 9.93742 2.08337 12.4999C2.08337 15.0624 2.08337 15.3958 2.14587 16.4166C2.16313 17.3068 2.33223 18.1875 2.64587 19.0208C2.93672 19.779 3.3838 20.4676 3.95806 21.0419C4.53232 21.6162 5.22094 22.0632 5.97921 22.3541C6.81248 22.6677 7.69319 22.8368 8.58337 22.8541C9.62504 22.8541 9.92712 22.9166 12.5 22.9166C15.073 22.9166 15.4063 22.9166 16.4167 22.8541C17.3069 22.8368 18.1876 22.6677 19.0209 22.3541C19.7791 22.0632 20.4678 21.6162 21.042 21.0419C21.6163 20.4676 22.0634 19.779 22.3542 19.0208C22.6679 18.1875 22.837 17.3068 22.8542 16.4166C22.8542 15.3749 22.9167 15.0624 22.9167 12.4999C22.9167 9.93742 22.9167 9.60409 22.8542 8.58325ZM20.7709 16.3228C20.7526 16.9839 20.6296 17.6379 20.4063 18.2603C20.2217 18.7524 19.9299 19.1971 19.5521 19.5624C19.189 19.9404 18.7434 20.2292 18.25 20.4062C17.6261 20.6386 16.9678 20.7653 16.3021 20.7812C15.323 20.7812 15.0209 20.8333 12.4896 20.8333C9.95837 20.8333 9.66671 20.8333 8.68754 20.8333C8.02298 20.8161 7.36541 20.693 6.73962 20.4687C6.2476 20.2841 5.80282 19.9923 5.43754 19.6145C5.05958 19.2514 4.77079 18.8057 4.59379 18.3124C4.36234 17.6918 4.23561 17.0371 4.21879 16.3749C4.21879 15.3333 4.21879 15.0728 4.21879 12.552C4.21879 10.0312 4.21879 9.72909 4.21879 8.72909C4.23675 8.06368 4.36342 7.40568 4.59379 6.78117C4.77354 6.29224 5.06205 5.85057 5.43754 5.4895C5.80064 5.11154 6.2463 4.82275 6.73962 4.64575C7.36357 4.41335 8.02191 4.28661 8.68754 4.27075C9.66671 4.16659 9.96879 4.16659 12.5 4.16659C15.0313 4.16659 15.3334 4.16659 16.3125 4.16659C16.9814 4.18359 17.643 4.31028 18.2709 4.54159C18.7598 4.72133 19.2015 5.00985 19.5625 5.38534C19.9405 5.74844 20.2293 6.19409 20.4063 6.68742C20.6613 7.32134 20.8057 7.99428 20.8334 8.677C20.8334 9.71867 20.8855 9.97909 20.8855 12.4999C20.8855 15.0208 20.8334 15.3228 20.8334 16.3228H20.7709Z" fill="#4F46E5"/>
</svg>
