<svg width="19" height="19" viewBox="0 0 19 19" fill="none" xmlns="http://www.w3.org/2000/svg">
<path d="M15.3277 13.4584C15.9183 13.8194 16.2292 14.229 16.2292 14.6459C16.2292 15.0628 15.9183 15.4723 15.3277 15.8334C14.7371 16.1944 13.8876 16.4942 12.8646 16.7027C11.8417 16.9111 10.6813 17.0209 9.50004 17.0209C8.31883 17.0209 7.15842 16.9111 6.13546 16.7027C5.1125 16.4942 4.26302 16.1944 3.67241 15.8334C3.0818 15.4723 2.77087 15.0628 2.77087 14.6459C2.77087 14.229 3.0818 13.8194 3.67241 13.4584" stroke="#4F46E5" stroke-linecap="round"/>
<path d="M15.4375 7.91663C15.4375 11.8002 11.2852 14.448 9.92541 15.2109C9.65854 15.3607 9.34146 15.3607 9.07459 15.2109C7.71483 14.448 3.5625 11.8002 3.5625 7.91663C3.5625 4.35413 6.43942 1.97913 9.5 1.97913C12.6667 1.97913 15.4375 4.35413 15.4375 7.91663Z" stroke="#4F46E5"/>
<path d="M12.1667 7.91667C12.1667 9.38943 10.9728 10.5833 9.50004 10.5833C8.02728 10.5833 6.83337 9.38943 6.83337 7.91667C6.83337 6.44391 8.02728 5.25 9.50004 5.25C10.9728 5.25 12.1667 6.44391 12.1667 7.91667Z" stroke="#4F46E5"/>
</svg>
