<svg width="25" height="25" viewBox="0 0 25 25" fill="none" xmlns="http://www.w3.org/2000/svg">
<path d="M23.9492 4.11484C23.9494 3.93085 23.9007 3.75011 23.8083 3.59103C23.7158 3.43195 23.5828 3.30022 23.4229 3.20925C23.263 3.11827 23.0818 3.07131 22.8978 3.07313C22.7138 3.07496 22.5336 3.12552 22.3755 3.21965C21.7658 3.58255 21.1094 3.86047 20.4245 4.04569C19.4463 3.20635 18.1988 2.74705 16.9099 2.75174C15.4959 2.75337 14.1379 3.30445 13.1226 4.2886C12.1074 5.27275 11.5143 6.61295 11.4686 8.0262C8.68111 7.58168 6.15471 6.12675 4.37118 3.93885C4.26372 3.80847 4.12648 3.70584 3.97104 3.63963C3.8156 3.57341 3.64651 3.54554 3.47804 3.55838C3.30966 3.57224 3.1472 3.62691 3.0047 3.71766C2.86219 3.80841 2.74394 3.9325 2.66016 4.07921C2.2305 4.82902 1.98374 5.66959 1.9399 6.53266C1.89607 7.39573 2.0564 8.25697 2.40788 9.04645L2.40585 9.04848C2.24788 9.14578 2.11751 9.28198 2.02721 9.44405C1.93691 9.60613 1.8897 9.78866 1.8901 9.97419C1.88819 10.1272 1.89737 10.2802 1.91757 10.432C2.02396 11.7426 2.60484 12.9695 3.55128 13.8825C3.48707 14.0048 3.44789 14.1387 3.43601 14.2763C3.42413 14.4139 3.4398 14.5526 3.4821 14.6841C3.89472 15.9696 4.7722 17.055 5.94284 17.7277C4.75351 18.1876 3.46932 18.3479 2.20341 18.1946C1.96911 18.1652 1.73178 18.2163 1.53034 18.3395C1.3289 18.4627 1.17532 18.6508 1.09478 18.8727C1.01425 19.0947 1.01155 19.3375 1.08712 19.5612C1.1627 19.7849 1.31206 19.9763 1.5107 20.104C3.68789 21.5062 6.22287 22.2518 8.81255 22.2514C11.7493 22.2845 14.6146 21.346 16.9628 19.5821C19.311 17.8182 21.0104 15.3277 21.7967 12.498C22.1645 11.2653 22.3523 9.98595 22.3542 8.69959C22.3542 8.63143 22.3542 8.56124 22.3532 8.49106C22.897 7.90453 23.3184 7.21533 23.5924 6.46387C23.8665 5.7124 23.9878 4.91379 23.9492 4.11484ZM20.5048 7.46058C20.3328 7.66406 20.2457 7.92599 20.2617 8.19198C20.2719 8.36386 20.2708 8.53678 20.2708 8.69959C20.2687 9.78661 20.1094 10.8676 19.7978 11.909C19.1556 14.3167 17.724 16.4393 15.7323 17.9367C13.7405 19.4342 11.3039 20.2199 8.81255 20.1681C7.91763 20.1684 7.0258 20.0632 6.15549 19.8548C7.26529 19.4971 8.30298 18.9457 9.22047 18.2262C9.38945 18.0931 9.51312 17.911 9.57452 17.7049C9.63591 17.4988 9.63201 17.2787 9.56336 17.0749C9.4947 16.871 9.36466 16.6934 9.19107 16.5665C9.01748 16.4395 8.80885 16.3693 8.5938 16.3656C7.728 16.3521 6.90123 16.0031 6.28768 15.3921C6.44333 15.3626 6.59796 15.326 6.75156 15.2822C6.97657 15.2182 7.17348 15.0803 7.31058 14.8907C7.44768 14.7011 7.517 14.471 7.50736 14.2372C7.49773 14.0035 7.40971 13.7797 7.25748 13.6021C7.10525 13.4245 6.89766 13.3032 6.66814 13.2579C6.16558 13.1587 5.69267 12.9448 5.28618 12.6331C4.87969 12.3213 4.55057 11.9201 4.32439 11.4604C4.51265 11.4861 4.70211 11.5021 4.89202 11.5082C5.11763 11.5116 5.33847 11.4432 5.52262 11.3128C5.70677 11.1824 5.84467 10.9969 5.91639 10.7829C5.98512 10.567 5.98158 10.3347 5.90632 10.121C5.83105 9.90729 5.68817 9.72398 5.49932 9.59884C5.04114 9.2936 4.66582 8.87949 4.40698 8.39358C4.14814 7.90768 4.01386 7.36517 4.01616 6.81463C4.01616 6.74546 4.01819 6.67629 4.02227 6.60813C6.35691 8.78548 9.3851 10.069 12.5733 10.2326C12.7342 10.2389 12.8945 10.2086 13.042 10.144C13.1895 10.0793 13.3204 9.98193 13.4248 9.85927C13.5281 9.73541 13.6012 9.58927 13.6385 9.43235C13.6757 9.27542 13.676 9.11199 13.6393 8.95493C13.5798 8.70635 13.5494 8.45167 13.5488 8.19606C13.5498 7.30495 13.9042 6.45061 14.5343 5.8205C15.1644 5.19039 16.0187 4.83599 16.9098 4.83505C17.3683 4.83382 17.8221 4.92765 18.2424 5.11062C18.6628 5.29358 19.0407 5.56171 19.3523 5.89808C19.4724 6.02733 19.6236 6.1237 19.7915 6.17801C19.9594 6.23232 20.1384 6.24278 20.3115 6.20838C20.7394 6.12511 21.1612 6.01295 21.5739 5.87269C21.2924 6.44871 20.9326 6.98305 20.5048 7.46058Z" fill="#4F46E5"/>
</svg>
