<svg width="32" height="32" viewBox="0 0 32 32" fill="none" xmlns="http://www.w3.org/2000/svg">
<path fill-rule="evenodd" clip-rule="evenodd" d="M16 28C22.6274 28 28 22.6274 28 16C28 9.37258 22.6274 4 16 4C9.37258 4 4 9.37258 4 16C4 22.6274 9.37258 28 16 28ZM12.9822 10.4913L21.6149 14.8076C22.5976 15.299 22.5976 16.7014 21.6149 17.1928L12.9822 21.5091C11.9184 22.041 10.6667 21.2674 10.6667 20.078V11.9224C10.6667 10.733 11.9184 9.95937 12.9822 10.4913Z" fill="#7E869E" fill-opacity="0.25"/>
<path d="M12.4033 21.7983L12.6717 22.335L12.4033 21.7983ZM12.4033 10.2017L12.6717 9.665L12.4033 10.2017ZM12.6717 9.665L22.4795 14.5689L21.9428 15.6422L12.135 10.7383L12.6717 9.665ZM22.4795 17.4311L12.6717 22.335L12.135 21.2617L21.9428 16.3578L22.4795 17.4311ZM11.2667 11.275V20.725H10.0667V11.275H11.2667ZM12.6717 22.335C11.4748 22.9334 10.0667 22.0631 10.0667 20.725H11.2667C11.2667 21.171 11.7361 21.4611 12.135 21.2617L12.6717 22.335ZM22.4795 14.5689C23.6587 15.1585 23.6588 16.8414 22.4795 17.4311L21.9428 16.3578C22.2376 16.2104 22.2376 15.7896 21.9428 15.6422L22.4795 14.5689ZM12.135 10.7383C11.7361 10.5388 11.2667 10.8289 11.2667 11.275H10.0667C10.0667 9.93688 11.4748 9.06659 12.6717 9.665L12.135 10.7383Z" fill="white"/>
<circle cx="16" cy="16" r="12" stroke="white" stroke-width="1.2"/>
</svg>
